<svg width="32" height="32" viewBox="0 0 32 32" fill="none" xmlns="http://www.w3.org/2000/svg">
<path d="M26 2H8C7.46957 2 6.96086 2.21071 6.58579 2.58579C6.21071 2.96086 6 3.46957 6 4V8H4V10H6V15H4V17H6V22H4V24H6V28C6 28.5304 6.21071 29.0391 6.58579 29.4142C6.96086 29.7893 7.46957 30 8 30H26C26.5304 30 27.0391 29.7893 27.4142 29.4142C27.7893 29.0391 28 28.5304 28 28V4C28 3.46957 27.7893 2.96086 27.4142 2.58579C27.0391 2.21071 26.5304 2 26 2ZM26 28H8V24H10V22H8V17H10V15H8V10H10V8H8V4H26V28Z" fill="black"/>
<path d="M19 22V14H15V16H17V22H14V24H22V22H19Z" fill="black"/>
<path d="M18 8C17.7033 8 17.4133 8.08797 17.1666 8.2528C16.92 8.41762 16.7277 8.65189 16.6142 8.92597C16.5006 9.20006 16.4709 9.50166 16.5288 9.79264C16.5867 10.0836 16.7296 10.3509 16.9393 10.5607C17.1491 10.7704 17.4164 10.9133 17.7074 10.9712C17.9983 11.0291 18.2999 10.9994 18.574 10.8858C18.8481 10.7723 19.0824 10.58 19.2472 10.3334C19.412 10.0867 19.5 9.79667 19.5 9.5C19.5 9.10218 19.342 8.72064 19.0607 8.43934C18.7794 8.15804 18.3978 8 18 8Z" fill="black"/>
</svg>
